<svg width="40" height="40" viewBox="0 0 40 40" fill="none" xmlns="http://www.w3.org/2000/svg">
<g id="Arrow Right">
<path id="Vector" d="M18.3335 8.33335V26.95L10.2001 18.8167C9.55013 18.1667 8.48347 18.1667 7.83347 18.8167C7.18347 19.4667 7.18347 20.5167 7.83347 21.1667L18.8168 32.15C19.4668 32.8 20.5168 32.8 21.1668 32.15L32.1668 21.1834C32.8168 20.5334 32.8168 19.4834 32.1668 18.8334C31.5168 18.1834 30.4668 18.1834 29.8168 18.8334L21.6668 26.95V8.33335C21.6668 7.41669 20.9168 6.66669 20.0001 6.66669C19.0835 6.66669 18.3335 7.41669 18.3335 8.33335Z" fill="url(#paint0_linear_303_1405)"/>
</g>
<defs>
<linearGradient id="paint0_linear_303_1405" x1="7.34597" y1="32.6375" x2="12.5169" y2="3.13695" gradientUnits="userSpaceOnUse">
<stop stop-color="#00796D"/>
<stop offset="1" stop-color="#38C682"/>
</linearGradient>
</defs>
</svg>
